# xmcd
#
# Track frame offsets:
#	182
#	13807
#	27157
#	38632
#	50707
#
# Disc length: 844 seconds
#
# Revision: 1
# Processed by: cddbd v1.4PL0 Copyright (c) Steve Scherf et al.
# Submitted via: audiograbber 1.82.02
#
DISCID=38034a05
DTITLE=Various Artist - Looking Forward 2000 Muster Disk3
DYEAR=1900
DGENRE=
TTITLE0=Tommy Emmanuel - Ol Brother Hubbard
TTITLE1=Fiddlers Festival - Holiday For Strings
TTITLE2=Lindsay Butler - Catchin Yellowbelly
TTITLE3=Michael Fix - Gully Breeze
TTITLE4=Pixie Jenkins - Kakadu
EXTD=
EXTT0=
EXTT1=
EXTT2=
EXTT3=
EXTT4=
PLAYORDER=
